HIERARCHY
ROOT hip
{
  OFFSET 0 90.174 2.4664
  CHANNELS 6 Xposition Yposition Zposition Zrotation Xrotation Yrotation
  JOINT abdomen
  {
    OFFSET 0 -1.186 -1.5018
    CHANNELS 6 Xposition Yposition Zposition Zrotation Xrotation Yrotation
    JOINT abdomen2
    {
      OFFSET 0 9.964 0.2134
      CHANNELS 6 Xposition Yposition Zposition Zrotation Xrotation Yrotation
      JOINT chest
      {
        OFFSET 0 13.134 -3.2573
        CHANNELS 6 Xposition Yposition Zposition Zrotation Xrotation Yrotation
        JOINT neck
        {
          OFFSET 0 20.686 -1.6905
          CHANNELS 6 Xposition Yposition Zposition Zrotation Xrotation Yrotation
          JOINT head
          {
            OFFSET 0 7.238 -0.1237
            CHANNELS 6 Xposition Yposition Zposition Zrotation Xrotation Yrotation
            End Site
            {
              OFFSET 0 0 0
            }
          }
        }
        JOINT lCollar
        {
          OFFSET 1.7069 20.075 5.0056
          CHANNELS 6 Xposition Yposition Zposition Zrotation Xrotation Yrotation
          JOINT lShldr
          {
            OFFSET 13.6458 -0.047 -4.849
            CHANNELS 6 Xposition Yposition Zposition Zrotation Xrotation Yrotation
            JOINT lForeArm
            {
              OFFSET 28.3255 -0.9759 2.2888
              CHANNELS 6 Xposition Yposition Zposition Zrotation Xrotation Yrotation
              JOINT lHand
              {
                OFFSET 22.1583 -0.53 10.8316
                CHANNELS 6 Xposition Yposition Zposition Zrotation Xrotation Yrotation
                JOINT lThumb1
                {
                  OFFSET 0.786 0.112 2.5817
                  CHANNELS 6 Xposition Yposition Zposition Zrotation Xrotation Yrotation
                  JOINT lThumb2
                  {
                    OFFSET 0.3601 -0.878 4.2331
                    CHANNELS 6 Xposition Yposition Zposition Zrotation Xrotation Yrotation
                    JOINT lThumb2_End
                    {
                      OFFSET 1.8127 -1.216 2.2227
                      CHANNELS 6 Xposition Yposition Zposition Zrotation Xrotation Yrotation
                      End Site
                      {
                        OFFSET 0.0181 -0.0122 0.0222
                      }
                    }
                  }
                }
                JOINT lCarpal1
                {
                  OFFSET 0.9571 1.114 1.7695
                  CHANNELS 6 Xposition Yposition Zposition Zrotation Xrotation Yrotation
                  JOINT lIndex1
                  {
                    OFFSET 4.1246 0.487 4.1451
                    CHANNELS 6 Xposition Yposition Zposition Zrotation Xrotation Yrotation
                    JOINT lIndex2
                    {
                      OFFSET 3.4052 -1.454 2.7682
                      CHANNELS 6 Xposition Yposition Zposition Zrotation Xrotation Yrotation
                      JOINT lIndex2_End
                      {
                        OFFSET 1.4531 -1.795 1.2713
                        CHANNELS 6 Xposition Yposition Zposition Zrotation Xrotation Yrotation
                        End Site
                        {
                          OFFSET 0.0145 -0.0179 0.0127
                        }
                      }
                    }
                  }
                  JOINT lMid1
                  {
                    OFFSET 5.6954 0.21 2.1184
                    CHANNELS 6 Xposition Yposition Zposition Zrotation Xrotation Yrotation
                    JOINT lMid2
                    {
                      OFFSET 3.9766 -1.54 2.3863
                      CHANNELS 6 Xposition Yposition Zposition Zrotation Xrotation Yrotation
                      JOINT lMid2_End
                      {
                        OFFSET 1.4042 -1.926 1.125
                        CHANNELS 6 Xposition Yposition Zposition Zrotation Xrotation Yrotation
                        End Site
                        {
                          OFFSET 0.014 -0.0193 0.0113
                        }
                      }
                    }
                  }
                }
                JOINT lCarpal2
                {
                  OFFSET 2.0956 0.66 -0.3894
                  CHANNELS 6 Xposition Yposition Zposition Zrotation Xrotation Yrotation
                  JOINT lRing1
                  {
                    OFFSET 5.0395 -0.09 2.4971
                    CHANNELS 6 Xposition Yposition Zposition Zrotation Xrotation Yrotation
                    JOINT lRing2
                    {
                      OFFSET 3.7921 -1.552 1.4806
                      CHANNELS 6 Xposition Yposition Zposition Zrotation Xrotation Yrotation
                      JOINT lRing2_End
                      {
                        OFFSET 1.4655 -1.808 0.9609
                        CHANNELS 6 Xposition Yposition Zposition Zrotation Xrotation Yrotation
                        End Site
                        {
                          OFFSET 0.0147 -0.0181 0.0096
                        }
                      }
                    }
                  }
                  JOINT lPinky1
                  {
                    OFFSET 4.9141 -1.269 0.3591
                    CHANNELS 6 Xposition Yposition Zposition Zrotation Xrotation Yrotation
                    JOINT lPinky2
                    {
                      OFFSET 3.1477 -1.685 0.8462
                      CHANNELS 6 Xposition Yposition Zposition Zrotation Xrotation Yrotation
                      JOINT lPinky2_End
                      {
                        OFFSET 0.8055 -1.585 0.7955
                        CHANNELS 6 Xposition Yposition Zposition Zrotation Xrotation Yrotation
                        End Site
                        {
                          OFFSET 0.0081 -0.0158 0.008
                        }
                      }
                    }
                  }
                }
              }
            }
          }
        }
        JOINT rCollar
        {
          OFFSET -1.7069 20.075 5.0056
          CHANNELS 6 Xposition Yposition Zposition Zrotation Xrotation Yrotation
          JOINT rShldr
          {
            OFFSET -13.6458 -0.047 -4.849
            CHANNELS 6 Xposition Yposition Zposition Zrotation Xrotation Yrotation
            JOINT rForeArm
            {
              OFFSET -28.3255 -0.9759 2.2888
              CHANNELS 6 Xposition Yposition Zposition Zrotation Xrotation Yrotation
              JOINT rHand
              {
                OFFSET -22.1583 -0.53 10.8316
                CHANNELS 6 Xposition Yposition Zposition Zrotation Xrotation Yrotation
                JOINT rThumb1
                {
                  OFFSET -0.786 0.112 2.5817
                  CHANNELS 6 Xposition Yposition Zposition Zrotation Xrotation Yrotation
                  JOINT rThumb2
                  {
                    OFFSET -0.3601 -0.878 4.2331
                    CHANNELS 6 Xposition Yposition Zposition Zrotation Xrotation Yrotation
                    JOINT rThumb2_End
                    {
                      OFFSET -1.8127 -1.216 2.2227
                      CHANNELS 6 Xposition Yposition Zposition Zrotation Xrotation Yrotation
                      End Site
                      {
                        OFFSET -0.0181 -0.0122 0.0222
                      }
                    }
                  }
                }
                JOINT rCarpal1
                {
                  OFFSET -0.9571 1.114 1.7695
                  CHANNELS 6 Xposition Yposition Zposition Zrotation Xrotation Yrotation
                  JOINT rIndex1
                  {
                    OFFSET -4.1246 0.487 4.1451
                    CHANNELS 6 Xposition Yposition Zposition Zrotation Xrotation Yrotation
                    JOINT rIndex2
                    {
                      OFFSET -3.4052 -1.454 2.7682
                      CHANNELS 6 Xposition Yposition Zposition Zrotation Xrotation Yrotation
                      JOINT rIndex2_End
                      {
                        OFFSET -1.4531 -1.795 1.2713
                        CHANNELS 6 Xposition Yposition Zposition Zrotation Xrotation Yrotation
                        End Site
                        {
                          OFFSET -0.0145 -0.018 0.0127
                        }
                      }
                    }
                  }
                  JOINT rMid1
                  {
                    OFFSET -5.6954 0.21 2.1184
                    CHANNELS 6 Xposition Yposition Zposition Zrotation Xrotation Yrotation
                    JOINT rMid2
                    {
                      OFFSET -3.9766 -1.54 2.3863
                      CHANNELS 6 Xposition Yposition Zposition Zrotation Xrotation Yrotation
                      JOINT rMid2_End
                      {
                        OFFSET -1.4042 -1.926 1.125
                        CHANNELS 6 Xposition Yposition Zposition Zrotation Xrotation Yrotation
                        End Site
                        {
                          OFFSET -0.014 -0.0193 0.0113
                        }
                      }
                    }
                  }
                }
                JOINT rCarpal2
                {
                  OFFSET -2.0956 0.66 -0.3894
                  CHANNELS 6 Xposition Yposition Zposition Zrotation Xrotation Yrotation
                  JOINT rRing1
                  {
                    OFFSET -5.0395 -0.09 2.4971
                    CHANNELS 6 Xposition Yposition Zposition Zrotation Xrotation Yrotation
                    JOINT rRing2
                    {
                      OFFSET -3.7921 -1.552 1.4806
                      CHANNELS 6 Xposition Yposition Zposition Zrotation Xrotation Yrotation
                      JOINT rRing2_End
                      {
                        OFFSET -1.4655 -1.808 0.9609
                        CHANNELS 6 Xposition Yposition Zposition Zrotation Xrotation Yrotation
                        End Site
                        {
                          OFFSET -0.0147 -0.0181 0.0096
                        }
                      }
                    }
                  }
                  JOINT rPinky1
                  {
                    OFFSET -4.9141 -1.269 0.3592
                    CHANNELS 6 Xposition Yposition Zposition Zrotation Xrotation Yrotation
                    JOINT rPinky2
                    {
                      OFFSET -3.1477 -1.685 0.8462
                      CHANNELS 6 Xposition Yposition Zposition Zrotation Xrotation Yrotation
                      JOINT rPinky2_End
                      {
                        OFFSET -0.8055 -1.585 0.7955
                        CHANNELS 6 Xposition Yposition Zposition Zrotation Xrotation Yrotation
                        End Site
                        {
                          OFFSET -0.0081 -0.0158 0.008
                        }
                      }
                    }
                  }
                }
              }
            }
          }
        }
      }
    }
  }
  JOINT lThigh
  {
    OFFSET 8.367 -8.2066 0.5982
    CHANNELS 6 Xposition Yposition Zposition Zrotation Xrotation Yrotation
    JOINT lShin
    {
      OFFSET 2.1923 -43.463 -0.4932
      CHANNELS 6 Xposition Yposition Zposition Zrotation Xrotation Yrotation
      JOINT lFoot
      {
        OFFSET 0.7333 -45.8593 -2.6451
        CHANNELS 6 Xposition Yposition Zposition Zrotation Xrotation Yrotation
        End Site
        {
          OFFSET 2.6618 -4.2699 12.3931
        }
      }
    }
  }
  JOINT rThigh
  {
    OFFSET -8.367 -8.2066 0.5982
    CHANNELS 6 Xposition Yposition Zposition Zrotation Xrotation Yrotation
    JOINT rShin
    {
      OFFSET -2.1923 -43.463 -0.4931
      CHANNELS 6 Xposition Yposition Zposition Zrotation Xrotation Yrotation
      JOINT rFoot
      {
        OFFSET -0.7333 -45.8593 -2.6451
        CHANNELS 6 Xposition Yposition Zposition Zrotation Xrotation Yrotation
        End Site
        {
          OFFSET -2.6618 -4.2699 12.3931
        }
      }
    }
  }
}
MOTION
Frames:	4
Frame Time:	0.0333333
0 90.174 2.4664 0 0 -0 0 -1.186 -1.5018 0 0 -0 0 9.964 0.2134 0 0 -0 0 13.134 -3.2573 0 0 -0 0 20.686 -1.6905 0 0 -0 0 7.238 -0.1237 0 0 -0 1.7069 20.075 5.0056 0 0 -0 13.6458 -0.047 -4.849 1.66051 0.0835086 5.75766 28.3255 -0.9759 2.2888 -0.0175111 0.895433 15.7816 22.1583 -0.53 10.8316 7.95139e-016 -1.98785e-016 -0 0.786 0.112 2.5817 5.46658e-016 -3.97569e-016 -0 0.3601 -0.878 4.2331 5.96354e-016 0 -0 1.8127 -1.216 2.2227 3.97569e-016 1.98785e-016 9.54166e-015 0.9571 1.114 1.7695 1.49089e-016 -3.97569e-016 -0 4.1246 0.487 4.1451 6.4605e-016 0 3.18055e-015 3.4052 -1.454 2.7682 5.96354e-016 0 3.18055e-015 1.4531 -1.795 1.2713 8.94531e-016 -1.98785e-016 6.36111e-015 5.6954 0.21 2.1184 6.4605e-016 0 3.18055e-015 3.9766 -1.54 2.3863 5.96354e-016 0 3.18055e-015 1.4042 -1.926 1.125 8.94531e-016 -1.98785e-016 6.36111e-015 2.0956 0.66 -0.3894 1.49089e-016 -3.97569e-016 -0 5.0395 -0.09 2.4971 6.4605e-016 0 3.18055e-015 3.7921 -1.552 1.4806 5.96354e-016 0 3.18055e-015 1.4655 -1.808 0.9609 8.94531e-016 -1.98785e-016 6.36111e-015 4.9141 -1.269 0.3591 6.4605e-016 0 3.18055e-015 3.1477 -1.685 0.8462 5.96354e-016 0 3.18055e-015 0.8055 -1.585 0.7955 8.94531e-016 -1.98785e-016 6.36111e-015 -1.7069 20.075 5.0056 0 0 -0 -13.6458 -0.047 -4.849 -1.4496 0.0636048 -5.0245 -28.3255 -0.9759 2.2888 -1.74811 1.20616 -16.8394 -22.1583 -0.53 10.8316 -1.19271e-015 1.98785e-016 -3.18055e-015 -0.786 0.112 2.5817 -3.97569e-016 1.98785e-016 -3.18055e-015 -0.3601 -0.878 4.2331 -2.98177e-016 1.98785e-016 -3.18055e-015 -1.8127 -1.216 2.2227 -2.98177e-016 3.97569e-016 -0 -0.9571 1.114 1.7695 4.96962e-016 0 -6.36111e-015 -4.1246 0.487 4.1451 -9.93923e-017 3.97569e-016 -0 -3.4052 -1.454 2.7682 -8.94531e-016 5.96354e-016 -0 -1.4531 -1.795 1.2713 -3.97569e-016 3.97569e-016 -0 -5.6954 0.21 2.1184 -9.93923e-017 3.97569e-016 -0 -3.9766 -1.54 2.3863 -8.94531e-016 5.96354e-016 -0 -1.4042 -1.926 1.125 -3.97569e-016 3.97569e-016 -0 -2.0956 0.66 -0.3894 4.96962e-016 0 -6.36111e-015 -5.0395 -0.09 2.4971 -9.93923e-017 3.97569e-016 -0 -3.7921 -1.552 1.4806 -8.94531e-016 5.96354e-016 -0 -1.4655 -1.808 0.9609 -3.97569e-016 3.97569e-016 -0 -4.9141 -1.269 0.3592 -9.93923e-017 3.97569e-016 -0 -3.1477 -1.685 0.8462 -8.94531e-016 5.96354e-016 -0 -0.8055 -1.585 0.7955 -3.97569e-016 3.97569e-016 -0 8.367 -8.2066 0.5982 -4.66115 -1.03232 0.120763 2.1923 -43.463 -0.4932 0.00990601 1.55097 0.177175 0.7333 -45.8593 -2.6451 4.65196 -0.54114 -0.255042 -8.367 -8.2066 0.5982 4.66115 -1.03222 -0.120763 -2.1923 -43.463 -0.4931 -0.00990459 1.5509 -0.177176 -0.7333 -45.8593 -2.6451 -4.65196 -0.541171 0.255041 
-0.000131546 -1.48958 79.5018 -180 -80.1203 -180 0 -1.186 -1.5018 3.15723e-005 -0.138091 -0.0954406 0 9.964 0.2134 -0.000166858 -0.276172 -0.190882 -1.38778e-017 13.134 -3.2573 -0.000166804 -0.276172 -0.190882 0 20.686 -1.6905 0.000128788 22.8877 -0.000322866 0 7.238 -0.1237 6.68968e-008 9.00526 3.56886e-008 1.7069 20.075 5.0056 -8.08078 -0.430726 0.103232 13.6458 -0.047 -4.849 -81.2437 -0.463829 1.67836 28.3255 -0.9759 2.2888 3.34314 -3.74537 -26.707 22.1583 -0.53 10.8316 -16.1618 6.58175 3.2586 0.786 0.112 2.5817 -1.12833e-006 -2.36746e-006 1.86908e-006 0.3601 -0.878 4.2331 -1.12833e-006 -2.36746e-006 1.86908e-006 1.8127 -1.216 2.2227 -1.13641e-006 -1.86908e-006 -2.36746e-006 0.9571 1.114 1.7695 2.38542e-015 -1.59028e-015 -3.18055e-015 4.1246 0.487 4.1451 -1.12833e-006 -2.36746e-006 1.86908e-006 3.4052 -1.454 2.7682 -1.12833e-006 -2.36746e-006 1.86908e-006 1.4531 -1.795 1.2713 -1.13641e-006 -1.86908e-006 -2.36746e-006 5.6954 0.21 2.1184 -1.12833e-006 -2.36746e-006 1.86908e-006 3.9766 -1.54 2.3863 -1.12833e-006 -2.36746e-006 1.86908e-006 1.4042 -1.926 1.125 -1.13641e-006 -1.86908e-006 -2.36746e-006 2.0956 0.66 -0.3894 2.38542e-015 -1.59028e-015 -3.18055e-015 5.0395 -0.09 2.4971 -1.12833e-006 -2.36746e-006 1.86908e-006 3.7921 -1.552 1.4806 -1.12833e-006 -2.36746e-006 1.86908e-006 1.4655 -1.808 0.9609 -1.13641e-006 -1.86908e-006 -2.36746e-006 4.9141 -1.269 0.3591 -1.12833e-006 -2.36746e-006 1.86908e-006 3.1477 -1.685 0.8462 -1.12833e-006 -2.36746e-006 1.86908e-006 0.8055 -1.585 0.7955 -1.13641e-006 -1.86908e-006 -2.36746e-006 -1.7069 20.075 5.0056 8.15661 -0.212988 -0.180747 -13.6458 -0.047 -4.849 81.4119 -0.457339 -1.01161 -28.3255 -0.9759 2.2888 -0.805817 -1.83633 46.0975 -22.1583 -0.53 10.8316 16.0503 6.84341 -2.90321 -0.786 0.112 2.5817 2.51335e-006 1.64383e-006 -1.30811e-006 -0.3601 -0.878 4.2331 -2.51335e-006 -1.64383e-006 1.30811e-006 -1.8127 -1.216 2.2227 2.51335e-006 1.64383e-006 -1.30811e-006 -0.9571 1.114 1.7695 -1.19271e-015 7.95139e-016 6.36111e-015 -4.1246 0.487 4.1451 2.51335e-006 1.64383e-006 -1.30811e-006 -3.4052 -1.454 2.7682 -2.51335e-006 -1.64383e-006 1.30811e-006 -1.4531 -1.795 1.2713 2.51335e-006 1.64383e-006 -1.30811e-006 -5.6954 0.21 2.1184 2.51335e-006 1.64383e-006 -1.30811e-006 -3.9766 -1.54 2.3863 -2.51335e-006 -1.64383e-006 1.30811e-006 -1.4042 -1.926 1.125 2.51335e-006 1.64383e-006 -1.30811e-006 -2.0956 0.66 -0.3894 -1.19271e-015 7.95139e-016 6.36111e-015 -5.0395 -0.09 2.4971 2.51335e-006 1.64383e-006 -1.30811e-006 -3.7921 -1.552 1.4806 -2.51335e-006 -1.64383e-006 1.30811e-006 -1.4655 -1.808 0.9609 2.51335e-006 1.64383e-006 -1.30811e-006 -4.9141 -1.269 0.3592 2.51335e-006 1.64383e-006 -1.30811e-006 -3.1477 -1.685 0.8462 -2.51335e-006 -1.64383e-006 1.30811e-006 -0.8055 -1.585 0.7955 2.51335e-006 1.64383e-006 -1.30811e-006 8.367 -8.2066 0.5982 32.7535 -35.4959 27.1711 2.1923 -43.463 -0.4932 114.846 60.1322 -117.355 0.7333 -45.8593 -2.6451 0.785515 20.6338 -3.46067 -8.367 -8.2066 0.5982 -32.7743 -35.4963 -27.1965 -2.1923 -43.463 -0.4931 -114.846 60.1329 117.351 -0.7333 -45.8593 -2.6451 -0.804616 20.6323 3.4685 
-0.000325913 4.32026 74.4858 -180 -85.9956 -180 0 -1.186 -1.5018 -0.000237268 -0.0244444 -0.0896846 -1.30104e-018 9.964 0.2134 -0.000512807 -0.0488723 -0.179369 0 13.134 -3.2573 -0.000512795 -0.048893 -0.179369 0 20.686 -1.6905 0.00039721 19.7825 -0.00118007 3.46945e-018 7.238 -0.1237 -3.41254e-008 6.45498 1.0756e-007 1.7069 20.075 5.0056 -6.19005 -1.19756 0.448295 13.6458 -0.047 -4.849 -77.4088 -0.255902 2.25006 28.3255 -0.9759 2.2888 3.04169 -3.34188 -25.1968 22.1583 -0.53 10.8316 -15.4052 5.8767 3.82809 0.786 0.112 2.5817 1.98785e-016 2.38542e-015 -3.18055e-015 0.3601 -0.878 4.2331 5.96354e-016 1.49089e-015 -6.36111e-015 1.8127 -1.216 2.2227 7.95139e-016 1.19271e-015 -3.18055e-015 0.9571 1.114 1.7695 -1.98785e-016 5.96354e-016 -0 4.1246 0.487 4.1451 3.97569e-016 -2.98177e-016 -6.36111e-015 3.4052 -1.454 2.7682 -5.96354e-016 9.93923e-016 -3.18055e-015 1.4531 -1.795 1.2713 7.95139e-016 2.98177e-016 -0 5.6954 0.21 2.1184 3.97569e-016 -2.98177e-016 -6.36111e-015 3.9766 -1.54 2.3863 -5.96354e-016 9.93923e-016 -3.18055e-015 1.4042 -1.926 1.125 7.95139e-016 2.98177e-016 -0 2.0956 0.66 -0.3894 -1.98785e-016 5.96354e-016 -0 5.0395 -0.09 2.4971 3.97569e-016 -2.98177e-016 -6.36111e-015 3.7921 -1.552 1.4806 -5.96354e-016 9.93923e-016 -3.18055e-015 1.4655 -1.808 0.9609 7.95139e-016 2.98177e-016 -0 4.9141 -1.269 0.3591 3.97569e-016 -2.98177e-016 -6.36111e-015 3.1477 -1.685 0.8462 -5.96354e-016 9.93923e-016 -3.18055e-015 0.8055 -1.585 0.7955 7.95139e-016 2.98177e-016 -0 -1.7069 20.075 5.0056 6.55471 -0.198618 -0.778681 -13.6458 -0.047 -4.849 77.4922 -0.202118 -1.81781 -28.3255 -0.9759 2.2888 -0.700434 -1.23275 43.8363 -22.1583 -0.53 10.8316 15.0989 6.44635 -2.68242 -0.786 0.112 2.5817 -4.96962e-016 2.18663e-015 -9.54166e-015 -0.3601 -0.878 4.2331 1.27865e-005 5.43341e-006 2.57195e-006 -1.8127 -1.216 2.2227 1.09332e-015 -5.96354e-016 9.54166e-015 -0.9571 1.114 1.7695 9.93923e-016 6.95746e-016 -3.18055e-015 -4.1246 0.487 4.1451 9.93923e-017 -3.97569e-016 9.54166e-015 -3.4052 -1.454 2.7682 1.27865e-005 5.43341e-006 2.57195e-006 -1.4531 -1.795 1.2713 -2.18663e-015 4.17448e-015 1.27222e-014 -5.6954 0.21 2.1184 9.93923e-017 -3.97569e-016 9.54166e-015 -3.9766 -1.54 2.3863 1.27865e-005 5.43341e-006 2.57195e-006 -1.4042 -1.926 1.125 -2.18663e-015 4.17448e-015 1.27222e-014 -2.0956 0.66 -0.3894 9.93923e-016 6.95746e-016 -3.18055e-015 -5.0395 -0.09 2.4971 9.93923e-017 -3.97569e-016 9.54166e-015 -3.7921 -1.552 1.4806 1.27865e-005 5.43341e-006 2.57195e-006 -1.4655 -1.808 0.9609 -2.18663e-015 4.17448e-015 1.27222e-014 -4.9141 -1.269 0.3592 9.93923e-017 -3.97569e-016 9.54166e-015 -3.1477 -1.685 0.8462 1.27865e-005 5.43341e-006 2.57195e-006 -0.8055 -1.585 0.7955 -2.18663e-015 4.17448e-015 1.27222e-014 8.367 -8.2066 0.5982 31.34 -33.7278 26.5116 2.1923 -43.463 -0.4932 104.721 64.4054 -108.697 0.7333 -45.8593 -2.6451 2.44953 19.7123 -4.62821 -8.367 -8.2066 0.5982 -31.4098 -33.7372 -26.6047 -2.1923 -43.463 -0.4931 -104.72 64.4059 108.693 -0.7333 -45.8593 -2.6451 -2.52144 19.7059 4.67394 
-0.000553074 4.32159 74.4863 -180 -85.9956 -180 0 -1.186 -1.5018 -0.000527601 0.0754261 -0.089934 8.67362e-019 9.964 0.2134 -0.000936874 0.150821 -0.179868 -3.46945e-018 13.134 -3.2573 -0.000936841 0.150819 -0.179868 -3.46945e-018 20.686 -1.6905 -7.84071e-006 18.1181 2.8035e-005 6.93889e-018 7.238 -0.1237 -6.80245e-008 4.54131 6.91849e-008 1.7069 20.075 5.0056 -4.84586 -1.9387 0.800974 13.6458 -0.047 -4.849 -78.3963 -0.0953937 2.56659 28.3255 -0.9759 2.2888 2.81457 -3.09907 -26.1393 22.1583 -0.53 10.8316 -15.5911 5.56746 4.5928 0.786 0.112 2.5817 -1.98785e-016 2.48481e-015 -6.36111e-015 0.3601 -0.878 4.2331 -7.95139e-016 1.49089e-015 -0 1.8127 -1.216 2.2227 1.0483e-031 1.88845e-015 -3.18055e-015 0.9571 1.114 1.7695 -1.98785e-016 5.96354e-016 -6.36111e-015 4.1246 0.487 4.1451 -1.19271e-015 1.98785e-015 -0 3.4052 -1.454 2.7682 -3.97569e-016 2.5842e-015 -3.18055e-015 1.4531 -1.795 1.2713 1.98785e-016 1.98785e-015 -3.18055e-015 5.6954 0.21 2.1184 -1.19271e-015 1.98785e-015 -0 3.9766 -1.54 2.3863 -3.97569e-016 2.5842e-015 -3.18055e-015 1.4042 -1.926 1.125 1.98785e-016 1.98785e-015 -3.18055e-015 2.0956 0.66 -0.3894 -1.98785e-016 5.96354e-016 -6.36111e-015 5.0395 -0.09 2.4971 -1.19271e-015 1.98785e-015 -0 3.7921 -1.552 1.4806 -3.97569e-016 2.5842e-015 -3.18055e-015 1.4655 -1.808 0.9609 1.98785e-016 1.98785e-015 -3.18055e-015 4.9141 -1.269 0.3591 -1.19271e-015 1.98785e-015 -0 3.1477 -1.685 0.8462 -3.97569e-016 2.5842e-015 -3.18055e-015 0.8055 -1.585 0.7955 1.98785e-016 1.98785e-015 -3.18055e-015 -1.7069 20.075 5.0056 5.49384 -0.185254 -1.35203 -13.6458 -0.047 -4.849 78.3981 0.00128885 -2.36023 -28.3255 -0.9759 2.2888 -0.481845 -0.83444 45.1978 -22.1583 -0.53 10.8316 15.0989 6.44636 -2.68242 -0.786 0.112 2.5817 6.95746e-016 7.95139e-016 -3.18055e-015 -0.3601 -0.878 4.2331 -3.97569e-016 -6.95746e-016 -0 -1.8127 -1.216 2.2227 -1.49089e-015 1.19271e-015 -0 -0.9571 1.114 1.7695 6.95746e-016 -1.98785e-016 -3.18055e-015 -4.1246 0.487 4.1451 -1.68967e-015 1.78906e-015 1.59028e-014 -3.4052 -1.454 2.7682 -1.09332e-015 2.68359e-015 -3.18055e-015 -1.4531 -1.795 1.2713 -1.59028e-015 2.5842e-015 -6.36111e-015 -5.6954 0.21 2.1184 -1.68967e-015 1.78906e-015 1.59028e-014 -3.9766 -1.54 2.3863 -1.09332e-015 2.68359e-015 -3.18055e-015 -1.4042 -1.926 1.125 -1.59028e-015 2.5842e-015 -6.36111e-015 -2.0956 0.66 -0.3894 6.95746e-016 -1.98785e-016 -3.18055e-015 -5.0395 -0.09 2.4971 -1.68967e-015 1.78906e-015 1.59028e-014 -3.7921 -1.552 1.4806 -1.09332e-015 2.68359e-015 -3.18055e-015 -1.4655 -1.808 0.9609 -1.59028e-015 2.5842e-015 -6.36111e-015 -4.9141 -1.269 0.3592 -1.68967e-015 1.78906e-015 1.59028e-014 -3.1477 -1.685 0.8462 -1.09332e-015 2.68359e-015 -3.18055e-015 -0.8055 -1.585 0.7955 -1.59028e-015 2.5842e-015 -6.36111e-015 8.367 -8.2066 0.5982 32.7062 -33.7393 28.0882 2.1923 -43.463 -0.4932 104.729 64.4067 -108.739 0.7333 -45.8593 -2.6451 3.81227 19.849 -5.70717 -8.367 -8.2066 0.5982 -32.825 -33.7543 -28.2478 -2.1923 -43.463 -0.4931 -104.728 64.4073 108.737 -0.7333 -45.8593 -2.6451 -3.93546 19.8359 5.78941 
